<svg xmlns="http://www.w3.org/2000/svg" viewBox="0 0 794 150" width="100%" height="100%">
  <defs>
    <style>
      @import url('https://fonts.googleapis.com/css2?family=Inter:wght@500;700&amp;display=swap');
      text { font-family: 'Inter', Arial, sans-serif; }
    </style>
    <linearGradient id="topLine" x1="0" y1="0" x2="1" y2="0">
      <stop offset="0%" stop-color="#3b82f6"/>
      <stop offset="50%" stop-color="#a855f7"/>
      <stop offset="100%" stop-color="#f59e0b"/>
    </linearGradient>
    <linearGradient id="textGrad" x1="0" y1="0" x2="1" y2="0">
      <stop offset="0%" stop-color="#3b82f6"/>
      <stop offset="50%" stop-color="#a855f7"/>
      <stop offset="100%" stop-color="#f59e0b"/>
    </linearGradient>
  </defs>

  <rect width="100%" height="100%" fill="#ffffff" />

  <!-- Top accent line -->
  <rect x="0" y="0" width="794" height="6" fill="url(#topLine)"/>
  
  <!-- Bottom border -->
  <rect x="0" y="149" width="794" height="1" fill="#e2e8f0"/>

  <!-- LEFT SIDE -->
  <!-- Logo -->
  <g transform="translate(40, 45)">
    <!-- row 1 -->
    <rect x="0" y="0" width="14" height="14" rx="2" fill="#1e293b"/>
    <rect x="17" y="0" width="14" height="14" rx="2" fill="#1e293b"/>
    <rect x="34" y="0" width="14" height="14" rx="2" fill="#1e293b"/>
    <!-- row 2 -->
    <rect x="0" y="17" width="14" height="14" rx="2" fill="#1e293b"/>
    <rect x="17" y="17" width="14" height="14" rx="2" fill="#1e293b"/>
    <rect x="34" y="17" width="14" height="14" rx="2" fill="#6b6b6b"/>
    <!-- row 3 -->
    <rect x="0" y="34" width="14" height="14" rx="2" fill="#1e293b"/>
    <rect x="17" y="34" width="14" height="14" rx="2" fill="#6b6b6b"/>
    <rect x="34" y="34" width="14" height="14" rx="2" fill="#2d2d2d"/>
  </g>

  <!-- Company Name -->
  <text x="105" y="75" font-size="28" font-weight="700" fill="url(#textGrad)" letter-spacing="-1">Structr AI Private Limited</text>

  <!-- Legal Info -->
  <text x="105" y="98" font-size="11" font-weight="500" fill="#475569">GSTIN: 09ABTCS4491A1ZY   |   CIN: U62011UW2026PTC251693</text>

  <!-- RIGHT SIDE -->
  <!-- Address -->
  <text x="730" y="60" font-size="11" font-weight="500" fill="#475569" text-anchor="end">105 New Gandhi Nagar, Ghaziabad, Uttar Pradesh, 201001</text>
  <!-- Pin Icon -->
  <g transform="translate(738, 49)" stroke="#3b82f6" stroke-width="2" stroke-linecap="round" stroke-linejoin="round" fill="none">
    <path d="M21 10c0 7-9 13-9 13s-9-6-9-13a9 9 0 0 1 18 0z" transform="scale(0.55)"/>
    <circle cx="12" cy="10" r="3" transform="scale(0.55)"/>
  </g>

  <!-- Phone -->
  <text x="730" y="80" font-size="11" font-weight="500" fill="#475569" text-anchor="end">+91 7530929292, +91 9555007677</text>
  <g transform="translate(738, 69)" stroke="#3b82f6" stroke-width="2" stroke-linecap="round" stroke-linejoin="round" fill="none">
    <path d="M22 16.92v3a2 2 0 0 1-2.18 2 19.79 19.79 0 0 1-8.63-3.07 19.5 19.5 0 0 1-6-6 19.79 19.79 0 0 1-3.07-8.67A2 2 0 0 1 4.11 2h3a2 2 0 0 1 2 1.72 12.84 12.84 0 0 0 .7 2.81 2 2 0 0 1-.45 2.11L8.09 9.91a16 16 0 0 0 6 6l1.27-1.27a2 2 0 0 1 2.11-.45 12.84 12.84 0 0 0 2.81.7A2 2 0 0 1 22 16.92z" transform="scale(0.55)"/>
  </g>

  <!-- Email -->
  <text x="730" y="100" font-size="11" font-weight="500" fill="#475569" text-anchor="end">madhav.bansal@structr.in</text>
  <g transform="translate(738, 89)" stroke="#3b82f6" stroke-width="2" stroke-linecap="round" stroke-linejoin="round" fill="none">
    <path d="M4 4h16c1.1 0 2 .9 2 2v12c0 1.1-.9 2-2 2H4c-1.1 0-2-.9-2-2V6c0-1.1.9-2 2-2z" transform="scale(0.55)"/>
    <polyline points="22,6 12,13 2,6" transform="scale(0.55)"/>
  </g>
</svg>
