<svg width="2426" height="500" viewBox="0 0 2426 500" fill="none" xmlns="http://www.w3.org/2000/svg">
<path d="M437.81 25.1016H62.2098C41.6648 25.1016 25.0098 41.7566 25.0098 62.3016V437.902C25.0098 458.447 41.6648 475.102 62.2098 475.102H437.81C458.355 475.102 475.01 458.447 475.01 437.902V62.3016C475.01 41.7566 458.355 25.1016 437.81 25.1016Z" fill="#008D87"/>
<path d="M77.0498 329.301V346.691H172.45C187.26 346.691 198.77 342.161 206.98 333.111C208.08 331.901 209.11 330.631 210.04 329.301H77.0498Z" fill="white"/>
<path d="M213.84 259.662C210.19 253.162 204.86 247.482 197.81 242.602C203.63 238.252 208.02 232.942 210.97 226.652C214.08 220.102 215.63 212.502 215.63 203.842C215.63 188.322 211.16 176.072 202.24 167.052C199.59 164.392 196.58 162.112 193.19 160.242C185.11 155.762 174.92 153.512 162.59 153.512H77.04V312.252H212.69C217.11 304.432 219.3 294.992 219.3 283.932C219.3 274.252 217.48 266.162 213.83 259.662H213.84ZM137.6 189.792H141.28C151.91 189.792 157.23 195.612 157.23 207.272C157.23 213.722 155.86 218.272 153.1 220.922C150.36 223.552 145.7 224.872 139.13 224.872H137.6V189.792ZM154.31 289.902C151.36 292.692 146.42 294.092 139.49 294.092H137.6V255.112H141.83C153.1 255.112 158.75 261.882 158.75 275.432C158.75 282.282 157.28 287.112 154.31 289.902Z" fill="white"/>
<path d="M327.05 329.301L332.31 346.691H376.92L381.36 329.301H327.05Z" fill="white"/>
<path d="M363.84 153.512L348.89 226.492L331.41 153.512H289.41L272.73 226.492L256.88 153.512H197.85L199.66 160.242C203.05 162.112 206.06 164.392 208.71 167.052C217.63 176.072 222.1 188.322 222.1 203.842C222.1 212.502 220.55 220.102 217.44 226.652L240.38 312.262H296.72L310.74 262.442L325.82 312.262H382.45L423 153.522H363.87L363.84 153.512Z" fill="white"/>
<path d="M241.47 329.301L246.13 346.691H290.65L295.53 329.301H241.47Z" fill="white"/>
<path d="M528 358.771V141.229H617.368C632.522 141.229 645.288 143.612 655.668 148.377C666.047 153.142 673.832 159.772 679.022 168.267C684.419 176.554 687.118 186.188 687.118 197.168C687.118 208.149 684.731 217.369 679.956 224.827C675.181 232.286 668.85 238.087 660.962 242.231C653.281 246.167 644.873 248.446 635.739 249.068L640.41 245.649C650.374 246.064 659.197 248.757 666.878 253.729C674.766 258.494 680.89 264.917 685.25 272.997C689.817 281.077 692.1 289.883 692.1 299.413C692.1 311.015 689.298 321.271 683.693 330.18C678.295 339.088 670.199 346.133 659.405 351.312C648.818 356.285 635.843 358.771 620.481 358.771H528ZM570.037 324.586H613.631C625.048 324.586 633.871 321.996 640.099 316.816C646.326 311.637 649.44 304.178 649.44 294.441C649.44 284.703 646.223 277.141 639.787 271.754C633.352 266.16 624.426 263.363 613.008 263.363H570.037V324.586ZM570.037 231.975H610.517C621.519 231.975 629.927 229.489 635.739 224.517C641.552 219.544 644.458 212.5 644.458 203.384C644.458 194.475 641.552 187.535 635.739 182.562C629.927 177.383 621.416 174.793 610.206 174.793H570.037V231.975Z" fill="#008D87"/>
<path d="M721.545 358.771V141.229H865.094V175.104H763.582V231.975H855.753V264.606H763.582V324.896H865.094V358.771H721.545Z" fill="#008D87"/>
<path d="M894.717 358.771V141.229H946.718L1035.77 302.521H1037.02V141.229H1079.06V358.771H1027.06L938 197.79H936.754V358.771H894.717Z" fill="#008D87"/>
<path d="M1113.2 358.771V141.229H1256.75V175.104H1155.23V231.975H1247.4V264.606H1155.23V324.896H1256.75V358.771H1113.2Z" fill="#008D87"/>
<path d="M1286.37 358.771V141.229H1428.36V175.104H1328.41V233.218H1408.74V266.16H1328.41V358.771H1286.37Z" fill="#008D87"/>
<path d="M1453.16 358.771V141.229H1495.19V358.771H1453.16Z" fill="#008D87"/>
<path d="M1580.7 358.771V175.104H1516.87V141.229H1686.26V175.104H1622.43V358.771H1580.7Z" fill="#008D87"/>
<path d="M1745.96 358.771L1695.51 141.229H1740.04L1778.65 332.355H1780.21L1823.49 141.229H1873.94L1919.71 332.355H1920.96L1957.39 141.229H2001.92L1952.09 358.771H1890.13L1849.03 186.602H1847.78L1807.61 358.771H1745.96Z" fill="#FF7900"/>
<path d="M2023.76 358.771V141.229H2065.79V358.771H2023.76Z" fill="#FF7900"/>
<path d="M2176.21 362.5C2160.44 362.5 2146.32 359.807 2133.87 354.42C2121.62 349.033 2111.96 341.16 2104.91 330.801C2097.85 320.442 2094.11 307.907 2093.7 293.198H2138.22C2138.43 299.62 2139.99 305.421 2142.9 310.601C2146.01 315.78 2150.37 319.924 2155.97 323.032C2161.58 325.932 2168.33 327.383 2176.21 327.383C2182.65 327.383 2188.36 326.45 2193.34 324.586C2198.32 322.514 2202.16 319.613 2204.86 315.884C2207.77 311.948 2209.22 307.079 2209.22 301.278C2209.22 295.062 2207.66 289.883 2204.55 285.739C2201.64 281.595 2197.49 278.073 2192.09 275.173C2186.7 272.065 2180.57 269.372 2173.72 267.093C2167.08 264.606 2160.13 262.12 2152.86 259.634C2135.21 253.626 2121.72 245.856 2112.38 236.326C2103.25 226.796 2098.68 214.261 2098.68 198.722C2098.68 186.084 2101.79 175.207 2108.02 166.091C2114.25 156.975 2122.97 149.931 2134.18 144.959C2145.39 139.986 2158.15 137.5 2172.48 137.5C2187.22 137.5 2200.19 140.09 2211.4 145.269C2222.61 150.242 2231.43 157.493 2237.87 167.023C2244.3 176.554 2247.73 187.742 2248.14 200.587H2202.99C2202.79 194.993 2201.33 190.124 2198.63 185.981C2196.14 181.837 2192.51 178.522 2187.73 176.036C2183.17 173.55 2177.77 172.307 2171.54 172.307C2166.15 172.099 2161.16 172.928 2156.6 174.793C2152.24 176.45 2148.81 179.04 2146.32 182.562C2143.83 185.877 2142.58 190.331 2142.58 195.925C2142.58 201.105 2143.73 205.456 2146.01 208.978C2148.5 212.5 2151.93 215.608 2156.29 218.301C2160.85 220.787 2166.15 223.273 2172.17 225.76C2178.39 228.039 2185.35 230.525 2193.03 233.218C2204.03 236.948 2214.1 241.402 2223.23 246.581C2232.37 251.554 2239.63 258.08 2245.03 266.16C2250.63 274.24 2253.44 284.703 2253.44 297.548C2253.44 309.151 2250.43 319.924 2244.41 329.869C2238.59 339.606 2229.98 347.479 2218.56 353.488C2207.14 359.496 2193.03 362.5 2176.21 362.5Z" fill="#FF7900"/>
<path d="M2281.61 358.771V141.229H2425.16V175.104H2323.65V231.975H2415.82V264.606H2323.65V324.896H2425.16V358.771H2281.61Z" fill="#FF7900"/>
</svg>
