<?xml version="1.0" encoding="UTF-8"?>
<svg version="1.1" xmlns="http://www.w3.org/2000/svg" width="383" height="112">
<path d="M0 0 C0.91644287 0.00829834 1.83288574 0.01659668 2.77709961 0.02514648 C17.20413271 0.38248419 29.96809341 5.72584893 40.5 15.6875 C52.14504253 28.15529009 57.20594281 42.62750467 56.89453125 59.53125 C56.12411735 74.06736132 49.49471894 88.61097244 38.6875 98.4375 C25.19763795 109.69046445 9.94939706 113.54655453 -7.3125 112.4375 C-22.08555702 110.4386854 -34.81243663 102.36125446 -44.30859375 91.0625 C-54.77728507 77.01419165 -56.53053206 62.43352773 -55.3125 45.4375 C-54.50334709 41.10506411 -53.21311159 37.40348208 -51.3125 33.4375 C-50.86519531 32.48617187 -50.41789062 31.53484375 -49.95703125 30.5546875 C-43.1162246 17.09315377 -32.28764494 7.82508754 -18.09692383 2.62573242 C-11.96682837 0.64999934 -6.42713422 -0.07586635 0 0 Z " fill="#EEBA05" transform="translate(55.3125,-0.4375)"/>
<path d="M0 0 C0.91644287 0.00829834 1.83288574 0.01659668 2.77709961 0.02514648 C17.20413271 0.38248419 29.96809341 5.72584893 40.5 15.6875 C52.14504253 28.15529009 57.20594281 42.62750467 56.89453125 59.53125 C56.12411735 74.06736132 49.49471894 88.61097244 38.6875 98.4375 C25.19763795 109.69046445 9.94939706 113.54655453 -7.3125 112.4375 C-22.08555702 110.4386854 -34.81243663 102.36125446 -44.30859375 91.0625 C-54.77728507 77.01419165 -56.53053206 62.43352773 -55.3125 45.4375 C-54.50334709 41.10506411 -53.21311159 37.40348208 -51.3125 33.4375 C-50.86519531 32.48617187 -50.41789062 31.53484375 -49.95703125 30.5546875 C-43.1162246 17.09315377 -32.28764494 7.82508754 -18.09692383 2.62573242 C-11.96682837 0.64999934 -6.42713422 -0.07586635 0 0 Z M-33.71875 25.4609375 C-38.82213288 31.79013293 -42.19670557 38.61362706 -44.3125 46.4375 C-44.49554688 47.07042969 -44.67859375 47.70335937 -44.8671875 48.35546875 C-47.03618469 58.49648194 -44.81402814 69.09917233 -39.8515625 78.08203125 C-38.41827703 80.27561282 -36.9078648 82.36001946 -35.3125 84.4375 C-34.735 85.30375 -34.1575 86.17 -33.5625 87.0625 C-25.94947634 95.09846942 -15.56496324 100.65000399 -4.53515625 101.84765625 C3.28885352 102.03034886 10.34802225 101.16902085 17.6875 98.4375 C18.72777344 98.05464844 18.72777344 98.05464844 19.7890625 97.6640625 C30.99006481 92.79988221 38.70570603 82.89881218 43.78125 72.11328125 C47.48822613 62.00490653 47.29471578 48.826432 43 38.984375 C42.566875 38.14390625 42.13375 37.3034375 41.6875 36.4375 C41.213125 35.51453125 40.73875 34.5915625 40.25 33.640625 C33.43932953 21.78743889 23.63812081 15.28489929 10.6875 11.4375 C-5.43507725 7.63962846 -22.4617339 13.40743441 -33.71875 25.4609375 Z " fill="#FEE008" transform="translate(55.3125,-0.4375)"/>
<path d="M0 0 C3.031875 -0.061875 6.06375 -0.12375 9.1875 -0.1875 C10.60712036 -0.22846802 10.60712036 -0.22846802 12.05541992 -0.27026367 C16.79877977 -0.31708805 20.25553808 -0.27828393 24 3 C24.98515877 6.61224884 25.41963883 8.90893904 24.0625 12.4375 C23.5365625 13.2109375 23.5365625 13.2109375 23 14 C23.7425 14.5259375 23.7425 14.5259375 24.5 15.0625 C26.79395236 18.02552179 26.38888282 20.37042697 26 24 C24.02411088 27.01583076 21.37233301 27.93949001 18 29 C14.89002777 29.23833568 11.8041642 29.18846212 8.6875 29.125 C5.820625 29.08375 2.95375 29.0425 0 29 C0 19.43 0 9.86 0 0 Z " fill="#FDF3CF" transform="translate(63,42)"/>
<path d="M0 0 C2.31 0 4.62 0 7 0 C9.08238855 2.34920417 10.43245302 4.19994259 11.9375 6.875 C12.33517578 7.52597656 12.73285156 8.17695312 13.14257812 8.84765625 C16 13.61822289 16 13.61822289 16 16 C19.60278217 12.91984364 21.56486299 8.63586234 23.6875 4.47460938 C24.671875 2.73828125 24.671875 2.73828125 27 0 C29.31 0 31.62 0 34 0 C34 9.57 34 19.14 34 29 C31.69 29 29.38 29 27 29 C26.67 24.38 26.34 19.76 26 15 C23.69 18.63 21.38 22.26 19 26 C14 25 14 25 12.41796875 23.15234375 C11.27864583 21.1015625 10.13932292 19.05078125 9 17 C8.67 20.96 8.34 24.92 8 29 C5.36 29 2.72 29 0 29 C0 19.43 0 9.86 0 0 Z " fill="#FFFFFF" transform="translate(138,43)"/>
<path d="M0 0 C3.361875 -0.0825 6.72375 -0.165 10.1875 -0.25 C11.23832764 -0.28641602 12.28915527 -0.32283203 13.37182617 -0.36035156 C17.69855406 -0.41179602 20.32581235 -0.38477211 24.1484375 1.796875 C26 4 26 4 26.4375 7.5 C26.05282802 10.57737588 25.64756442 12.4256806 24 15 C24.66 15 25.32 15 26 15 C28.32291667 21.23519737 28.32291667 21.23519737 26.8125 24.8125 C24.65893429 27.41163102 23.07324715 28.89674978 19.63989258 29.22705078 C18.73392334 29.21657715 17.8279541 29.20610352 16.89453125 29.1953125 C15.56578979 29.18781982 15.56578979 29.18781982 14.21020508 29.18017578 C12.52834106 29.15286377 12.52834106 29.15286377 10.8125 29.125 C7.244375 29.08375 3.67625 29.0425 0 29 C0 19.43 0 9.86 0 0 Z M8 6 C8 7.98 8 9.96 8 12 C11.3 11.67 14.6 11.34 18 11 C18.33 10.01 18.66 9.02 19 8 C18.67 7.34 18.34 6.68 18 6 C14.7 6 11.4 6 8 6 Z M8 17 C8 18.98 8 20.96 8 23 C11.63 23 15.26 23 19 23 C19.33 21.68 19.66 20.36 20 19 C18.18806994 16.75675164 18.18806994 16.75675164 15.6171875 16.8046875 C14.71226562 16.82789062 13.80734375 16.85109375 12.875 16.875 C11.96492187 16.89304687 11.05484375 16.91109375 10.1171875 16.9296875 C9.41851562 16.95289062 8.71984375 16.97609375 8 17 Z " fill="#FFFFFF" transform="translate(233,43)"/>
<path d="M0 0 C6 0 6 0 7.59912109 1.46875 C8.18040771 2.47421875 8.18040771 2.47421875 8.7734375 3.5 C9.20527344 4.221875 9.63710938 4.94375 10.08203125 5.6875 C10.50871094 6.450625 10.93539062 7.21375 11.375 8 C11.82488281 8.763125 12.27476563 9.52625 12.73828125 10.3125 C13.84584615 12.19771686 14.93145884 14.09247963 16 16 C18.88506268 12.56928416 21.15173661 9.14558776 23.25 5.1875 C23.77078125 4.21167969 24.2915625 3.23585937 24.828125 2.23046875 C25.21484375 1.49441406 25.6015625 0.75835937 26 0 C27.98 0 29.96 0 32 0 C32 9.57 32 19.14 32 29 C30.02 29 28.04 29 26 29 C25.67 24.05 25.34 19.1 25 14 C23.9275 15.815 22.855 17.63 21.75 19.5 C19.921875 22.59375 19.921875 22.59375 18 25 C16.68 25 15.36 25 14 25 C11.23316295 21.22090549 9.2363156 17.12858265 7 13 C6.67 18.28 6.34 23.56 6 29 C4.02 29 2.04 29 0 29 C0 19.43 0 9.86 0 0 Z " fill="#FEF5D6" transform="translate(24,42)"/>
<path d="M0 0 C2.31 0 4.62 0 7 0 C7.33 2.97 7.66 5.94 8 9 C8.66 8.67 9.32 8.34 10 8 C14.99220285 7.62322997 17.98020143 7.92603639 22 11 C23.1482685 13.296537 23.11561175 14.58313167 23.09765625 17.1328125 C23.09443359 17.93847656 23.09121094 18.74414062 23.08789062 19.57421875 C23.07951172 20.41597656 23.07113281 21.25773437 23.0625 22.125 C23.05798828 22.97449219 23.05347656 23.82398437 23.04882812 24.69921875 C23.03702874 26.79950909 23.01909306 28.8997633 23 31 C20.69 31 18.38 31 16 31 C15.67 25.72 15.34 20.44 15 15 C13.02 15.33 11.04 15.66 9 16 C7.58365167 18.83269666 7.6536995 21.47466438 7.4375 24.625 C7.35371094 25.81351563 7.26992188 27.00203125 7.18359375 28.2265625 C7.12300781 29.14179687 7.06242187 30.05703125 7 31 C4.69 31 2.38 31 0 31 C0 20.77 0 10.54 0 0 Z " fill="#FFFFFF" transform="translate(314,41)"/>
<path d="M0 0 C3.35660205 2.2885923 4.38224187 4.07567187 5.75 7.875 C5.75 9.525 5.75 11.175 5.75 12.875 C-2.17 13.37 -2.17 13.37 -10.25 13.875 C-7.58032268 16.09441066 -7.58032268 16.09441066 -5.3125 15.74609375 C-4.631875 15.60300781 -3.95125 15.45992187 -3.25 15.3125 C0.51200418 14.7039405 0.51200418 14.7039405 2.75 16.3125 C3.08 16.828125 3.41 17.34375 3.75 17.875 C2.75 20.875 2.75 20.875 0.25 22.125 C-5.4829103 23.35348078 -10.26326106 23.15810223 -15.25 19.9375 C-18.75447172 16.32351353 -18.6406884 13.29313637 -18.60546875 8.42578125 C-18.0278449 4.2808541 -16.31536529 2.65521503 -13.25 -0.125 C-8.53428001 -1.69690666 -4.70181501 -1.62755135 0 0 Z M-9.25 4.875 C-10.24 6.36 -10.24 6.36 -11.25 7.875 C-8.28 7.875 -5.31 7.875 -2.25 7.875 C-2.25 7.215 -2.25 6.555 -2.25 5.875 C-4.56 5.545 -6.87 5.215 -9.25 4.875 Z " fill="#FFFFFF" transform="translate(194.25,50.125)"/>
<path d="M0 0 C5.64028777 2.92086331 5.64028777 2.92086331 7 7 C7.07051114 9.73865287 7.09357765 12.45027588 7.0625 15.1875 C7.05798828 15.93708984 7.05347656 16.68667969 7.04882812 17.45898438 C7.03706354 19.30602383 7.01912865 21.15302213 7 23 C5.76636719 22.98582031 4.53273438 22.97164062 3.26171875 22.95703125 C0.35618723 22.95511172 -2.33107189 23.12108675 -5.1875 23.6875 C-9.38195197 24.03130754 -10.75661437 23.55539474 -14 21 C-15 20 -15 20 -15.3125 16.625 C-15 13 -15 13 -13.30859375 11.31640625 C-10.65615905 9.80393502 -8.78201648 9.51197477 -5.75 9.3125 C-4.85796875 9.24675781 -3.9659375 9.18101563 -3.046875 9.11328125 C-2.37140625 9.07589844 -1.6959375 9.03851563 -1 9 C-1.33 8.34 -1.66 7.68 -2 7 C-5.5219721 6.91995518 -8.61981469 6.95994298 -12 8 C-14 5 -14 5 -14 2 C-9.44911605 -0.34884333 -5.01276246 -0.7312114 0 0 Z M-7 14 C-7.33 15.32 -7.66 16.64 -8 18 C-6.02 18 -4.04 18 -2 18 C-1.67 16.68 -1.34 15.36 -1 14 C-2.98 14 -4.96 14 -7 14 Z " fill="#FFFFFF" transform="translate(356,49)"/>
<path d="M0 0 C2.51731282 2.212184 3.08275254 3.6076372 4.0625 6.8125 C4.19960218 9.45857209 4.25312972 11.98719013 4.1875 14.625 C4.17847656 15.31787109 4.16945313 16.01074219 4.16015625 16.72460938 C4.13676157 18.42072395 4.10089641 20.11665871 4.0625 21.8125 C2.9075 21.791875 1.7525 21.77125 0.5625 21.75 C-2.42853442 21.72882454 -5.18187562 21.98425249 -8.125 22.5 C-12.31945197 22.84380754 -13.69411437 22.36789474 -16.9375 19.8125 C-17.9375 18.8125 -17.9375 18.8125 -18.25 15.4375 C-17.9375 11.8125 -17.9375 11.8125 -16.24609375 10.12890625 C-13.59365905 8.61643502 -11.71951648 8.32447477 -8.6875 8.125 C-7.79546875 8.05925781 -6.9034375 7.99351563 -5.984375 7.92578125 C-5.30890625 7.88839844 -4.6334375 7.85101563 -3.9375 7.8125 C-3.9375 7.1525 -3.9375 6.4925 -3.9375 5.8125 C-9.51580016 5.68780901 -9.51580016 5.68780901 -14.9375 6.8125 C-16.9375 3.8125 -16.9375 3.8125 -16.9375 0.8125 C-11.51044062 -1.98856291 -5.63591145 -2.27834718 0 0 Z M-9.9375 12.8125 C-10.2675 14.1325 -10.5975 15.4525 -10.9375 16.8125 C-8.9575 16.8125 -6.9775 16.8125 -4.9375 16.8125 C-4.6075 15.4925 -4.2775 14.1725 -3.9375 12.8125 C-5.9175 12.8125 -7.8975 12.8125 -9.9375 12.8125 Z " fill="#FFFFFF" transform="translate(280.9375,50.1875)"/>
<path d="M0 0 C3.5 1.8125 3.5 1.8125 6 4 C6 4.99 6 5.98 6 7 C4.02 7.66 2.04 8.32 0 9 C-0.66 8.34 -1.32 7.68 -2 7 C-5.09926819 7.32198966 -5.09926819 7.32198966 -8 8 C-8 10.31 -8 12.62 -8 15 C-6.23470405 16.21690533 -6.23470405 16.21690533 -4 17 C-2.65812182 16.3507041 -1.32520503 15.68268138 0 15 C2.75 15.375 2.75 15.375 5 16 C5.33 16.99 5.66 17.98 6 19 C3.55578989 22.15710472 2.13066472 22.96786933 -1.8125 23.9375 C-6.83116167 24.34011651 -10.70408491 22.86509017 -14.64453125 19.6640625 C-17.14548496 16.59372739 -17.12184275 12.84481552 -17 9 C-15.5797027 5.73331621 -13.73781644 3.2815137 -11 1 C-7.27493231 -0.24168923 -3.86899993 -0.53918266 0 0 Z " fill="#FFFFFF" transform="translate(305,49)"/>
<path d="M0 0 C2.64 0 5.28 0 8 0 C8 1.65 8 3.3 8 5 C9.65 5 11.3 5 13 5 C13 6.98 13 8.96 13 11 C11.35 11 9.7 11 8 11 C8.33 14.3 8.66 17.6 9 21 C10.65 21.33 12.3 21.66 14 22 C14.33 23.32 14.66 24.64 15 26 C12.22578757 27.88646445 10.86760546 27.99303187 7.4375 27.8125 C2.89632107 26.73913043 2.89632107 26.73913043 1 24 C-0.00496852 20.98509443 -0.10335303 18.95818308 -0.0625 15.8125 C-0.05347656 14.91144531 -0.04445313 14.01039062 -0.03515625 13.08203125 C-0.02355469 12.39496094 -0.01195312 11.70789062 0 11 C-0.99 11 -1.98 11 -3 11 C-3 9.02 -3 7.04 -3 5 C-2.01 5 -1.02 5 0 5 C0 3.35 0 1.7 0 0 Z " fill="#FFFFFF" transform="translate(368,45)"/>
<path d="M0 0 C5 0 10 0 15 0 C15 2.31 15 4.62 15 7 C14.030625 7.28875 13.06125 7.5775 12.0625 7.875 C8.89335797 8.64214682 8.89335797 8.64214682 8 11 C7.77141886 13.0374763 7.58975722 15.08040303 7.4375 17.125 C7.35371094 18.22070312 7.26992187 19.31640625 7.18359375 20.4453125 C7.12300781 21.28835937 7.06242188 22.13140625 7 23 C4.69 23 2.38 23 0 23 C0 15.41 0 7.82 0 0 Z " fill="#FFFFFF" transform="translate(203,49)"/>
<path d="M0 0 C2.31 0 4.62 0 7 0 C7 7.59 7 15.18 7 23 C4.69 23 2.38 23 0 23 C0 15.41 0 7.82 0 0 Z " fill="#FFFFFF" transform="translate(221,49)"/>
<path d="M0 0 C3.63 0 7.26 0 11 0 C11.66 1.32 12.32 2.64 13 4 C11 6 11 6 8.3984375 6.1953125 C7.40070313 6.17210938 6.40296875 6.14890625 5.375 6.125 C3.87066406 6.09792969 3.87066406 6.09792969 2.3359375 6.0703125 C1.56507812 6.04710938 0.79421875 6.02390625 0 6 C0 4.02 0 2.04 0 0 Z " fill="#EEBA06" transform="translate(70,59)"/>
<path d="M0 0 C1.45823212 -0.0270043 2.91660675 -0.04639787 4.375 -0.0625 C5.18710938 -0.07410156 5.99921875 -0.08570313 6.8359375 -0.09765625 C9 0 9 0 11 1 C10.67 2.65 10.34 4.3 10 6 C6.7 6 3.4 6 0 6 C0 4.02 0 2.04 0 0 Z " fill="#EEBA06" transform="translate(70,47)"/>
<path d="M0 0 C3.125 0.375 3.125 0.375 6 1 C6.625 2.8125 6.625 2.8125 7 5 C6.01 6.485 6.01 6.485 5 8 C2.69 7.67 0.38 7.34 -2 7 C-2.125 4.625 -2.125 4.625 -2 2 C-1.34 1.34 -0.68 0.68 0 0 Z " fill="#FFFFFF" transform="translate(222,39)"/>
</svg>
